<svg id="Layer_1" data-name="Layer 1" xmlns="http://www.w3.org/2000/svg" xmlns:xlink="http://www.w3.org/1999/xlink" viewBox="0 0 512 512"><defs><linearGradient id="linear-gradient" x1="256" x2="256" y2="512" gradientUnits="userSpaceOnUse"><stop offset="0" stop-color="#e9ebf5"/><stop offset="0.76" stop-color="#b0c7e1"/><stop offset="1" stop-color="#7697c6"/></linearGradient><linearGradient id="linear-gradient-2" x1="256" y1="430.36" x2="256" y2="81.65" gradientUnits="userSpaceOnUse"><stop offset="0" stop-color="#000013"/><stop offset="1" stop-color="#005c92"/></linearGradient></defs><title>prize_winner</title><path d="M256,512c141,0,256-115,256-256S397,0,256,0,0,115,0,256,115,512,256,512Z" fill-rule="evenodd" fill="url(#linear-gradient)"/><path d="M169.93,290.07l-26,111.17,57.92-42.85,43.76,57.83,3.25-76.44c-5.63,0-10.28-3.83-14.15-7.52-5.14-4.9-10-10.49-14.87-15.83-6.89,2.23-14,4.65-20.9,6.37-5.22,1.29-11.2,2.3-16.11-.55s-7-8.5-8.52-13.67c-1.73-6-3-12.3-4.34-18.51Zm120.3-153.51a82.54,82.54,0,1,1-112.89,30.2,82.44,82.44,0,0,1,112.89-30.2ZM276.4,105.68c41.82-13.07,38-15.2,47.57,27.41,42.88,9.56,40.6,5.63,27.47,47.47,32.09,29.45,32.05,25.4,0,54.81,13.1,41.73,15.14,38-27.47,47.47-9.54,42.55-5.8,40.46-47.57,27.41-29.67,32.19-25.26,32.18-54.94,0-42.1,13.15-37.95,15.55-47.58-27.41-42.77-9.55-40.6-5.62-27.47-47.47-32.07-29.44-32.13-25.31,0-54.81-13.09-41.72-15.23-37.94,27.47-47.47,9.61-42.87,5.57-40.54,47.58-27.41,29.53-32,25.4-32,54.94,0ZM161.89,208a87,87,0,1,1,87,86.88,87,87,0,0,1-87-86.88Zm89.61,131.5,7.41,90.85,40-54.09,55,38.28L327.36,292.77c-1.13,5.28-2.3,10.59-3.78,15.65s-3.68,10.79-8.59,13.64-10.88,1.9-16.13.64c-6.9-1.66-13.94-4.06-20.8-6.27-4.84,5.34-9.73,10.93-14.87,15.83C259.9,335.39,256,338.6,251.51,339.51Z" fill="#fff"/><path d="M327.57,249.26a82.61,82.61,0,1,1-30.25-112.7A82.72,82.72,0,0,1,327.57,249.26Zm31-13.9c13.1,41.73,15.13,38-27.48,47.47-9.53,42.55-5.8,40.46-47.57,27.41-29.67,32.19-25.27,32.18-54.94,0-42.1,13.15-37.95,15.55-47.58-27.41-42.77-9.55-40.6-5.62-27.46-47.47-32.08-29.44-32.14-25.31,0-54.81-13.1-41.72-15.23-37.94,27.46-47.47,9.62-42.87,5.57-40.54,47.58-27.41,29.53-32,25.4-32,54.94,0,41.83-13.07,38-15.2,47.57,27.41,42.88,9.56,40.6,5.63,27.48,47.47C390.61,210,390.57,205.95,358.53,235.36ZM343,208a87,87,0,1,0-87,86.88A87,87,0,0,0,343,208ZM226.9,316.42c-6.91,2.23-14,4.65-20.9,6.37-5.24,1.29-11.2,2.3-16.13-.55s-7-8.5-8.51-13.67c-1.73-6-3-12.3-4.34-18.51L151,401.24l57.93-42.85,43.76,57.83,3.25-76.44c-5.63,0-10.28-3.83-14.16-7.52C236.61,327.35,231.73,321.76,226.9,316.42Zm103.75-8c-1.51,5.17-3.67,10.79-8.58,13.64s-10.88,1.9-16.13.64c-6.9-1.66-13.94-4.06-20.8-6.27-4.84,5.34-9.73,10.93-14.87,15.83-3.29,3.14-7.15,6.35-11.69,7.26L266,430.36l40-54.09,55,38.28L334.43,292.77C333.31,298.05,332.14,303.36,330.65,308.42Z" fill="url(#linear-gradient-2)"/></svg>